<?xml version="1.0" standalone="no"?>
<!DOCTYPE svg PUBLIC "-//W3C//DTD SVG 20010904//EN"
 "http://www.w3.org/TR/2001/REC-SVG-20010904/DTD/svg10.dtd">
<svg version="1.0" xmlns="http://www.w3.org/2000/svg"
 width="1013.000000pt" height="298.000000pt" viewBox="0 0 1013.000000 298.000000"
 preserveAspectRatio="xMidYMid meet">

<g transform="translate(0.000000,298.000000) scale(0.100000,-0.100000)"
fill="#000000" stroke="none">
<path d="M3261 1838 c0 -535 4 -982 9 -993 5 -11 9 410 9 973 1 655 -2 992 -9
992 -7 0 -10 -330 -9 -972z"/>
<path d="M1370 2743 c-218 -35 -383 -94 -544 -193 -62 -37 -206 -147 -206
-156 0 -2 35 22 78 53 92 67 245 141 362 176 391 118 821 42 1143 -199 105
-79 239 -220 306 -322 27 -42 54 -82 58 -87 17 -22 63 -113 63 -124 0 -7 -44
-11 -139 -11 -76 0 -163 -4 -192 -10 -135 -25 -280 -134 -339 -254 -77 -159
-78 -302 -2 -456 47 -96 190 -219 273 -234 13 -3 24 -5 24 -6 0 -11 216 -23
241 -13 10 4 54 116 54 137 0 3 -42 6 -92 8 -162 7 -266 54 -332 151 -120 176
-39 418 164 490 31 11 97 17 215 21 94 3 179 7 190 10 11 2 34 5 50 5 27 1 33
7 48 47 16 44 16 48 -5 107 -103 303 -340 570 -640 722 -203 102 -390 146
-617 144 -75 -1 -147 -4 -161 -6z m1409 -962 c-7 -23 -14 -39 -16 -37 -3 2 1
23 8 45 7 23 14 39 16 37 3 -2 -1 -23 -8 -45z"/>
<path d="M1135 1971 c-11 -10 -123 -98 -248 -195 l-229 -176 -121 94 c-225
173 -271 206 -278 198 -12 -12 -70 -204 -86 -282 -20 -104 -20 -341 2 -445 82
-395 328 -725 682 -912 187 -99 367 -143 584 -143 305 0 577 102 822 308 42
36 77 67 77 69 0 2 -32 -21 -71 -51 -205 -156 -483 -249 -744 -249 -240 0
-441 62 -650 201 -272 180 -460 466 -520 791 -22 123 -19 411 6 411 4 0 68
-47 143 -105 74 -58 138 -105 141 -105 3 0 73 52 156 115 83 63 155 115 160
115 5 0 9 -10 9 -22 0 -15 8 -5 26 30 25 51 112 150 147 169 16 8 17 21 15
106 -3 97 -3 98 -23 78z"/>
<path d="M1940 1871 c0 -24 -23 -74 -49 -107 -9 -11 -1 -5 16 14 31 33 53 95
39 109 -3 4 -6 -4 -6 -16z"/>
<path d="M1514 1845 c-83 -13 -169 -28 -190 -35 -153 -50 -260 -155 -304 -298
l-18 -57 -78 -5 c-75 -5 -82 -7 -136 -50 l-58 -45 118 -6 c64 -4 129 -7 143
-8 23 -1 28 -8 38 -47 42 -166 185 -291 376 -328 90 -18 237 -34 254 -28 7 2
11 32 11 77 0 49 4 75 13 79 6 3 -1 4 -16 1 -16 -3 -34 -2 -40 3 -7 6 -86 20
-177 32 -201 26 -251 41 -306 92 -38 35 -82 104 -72 114 2 2 98 4 214 5 227 1
249 -3 300 -52 l31 -30 26 40 c23 35 27 51 27 113 0 63 -3 77 -25 102 l-24 29
-38 -33 c-64 -56 -82 -60 -308 -60 -166 0 -205 3 -205 14 0 19 47 87 79 113
36 31 158 68 271 82 52 6 127 17 165 23 39 7 75 11 81 10 13 -3 20 164 7 170
-4 3 -76 -5 -159 -17z"/>
<path d="M3860 1635 l0 -155 25 0 25 0 0 155 0 155 -25 0 -25 0 0 -155z"/>
<path d="M3990 1635 l0 -156 88 3 c82 3 87 4 90 26 3 21 0 22 -62 22 l-65 0
-3 128 c-3 123 -4 127 -25 130 l-23 3 0 -156z"/>
<path d="M4242 1638 l3 -153 88 -3 87 -3 0 26 c0 24 -2 25 -65 25 l-65 0 0
130 0 130 -25 0 -26 0 3 -152z"/>
<path d="M4500 1635 l0 -156 93 3 c86 3 92 4 95 25 3 21 -1 22 -70 25 l-73 3
-3 37 -3 37 63 3 c56 3 63 5 66 25 3 20 -1 22 -60 25 l-63 3 -3 37 -3 37 73 3
c67 3 73 5 76 26 3 21 1 22 -92 22 l-96 0 0 -155z"/>
<path d="M4960 1700 c0 -49 -3 -90 -8 -90 -4 0 -45 38 -92 85 -47 47 -88 85
-92 85 -5 0 -8 -67 -8 -150 l0 -150 25 0 c25 0 25 1 25 90 0 50 4 90 8 90 4 0
37 -30 72 -66 36 -36 77 -74 93 -85 l27 -20 0 150 0 151 -25 0 c-25 0 -25 -1
-25 -90z"/>
<path d="M5280 1701 c0 -50 -3 -91 -7 -91 -4 0 -47 39 -95 87 l-88 88 0 -153
c0 -145 1 -152 20 -152 19 0 20 7 20 91 0 52 4 89 9 87 5 -1 48 -40 95 -85 47
-46 88 -83 91 -83 3 0 4 66 3 148 -3 144 -3 147 -25 150 -22 3 -23 1 -23 -87z"/>
<path d="M5400 1635 l0 -155 25 0 25 0 0 155 0 155 -25 0 -25 0 0 -155z"/>
<path d="M5530 1680 c0 -80 4 -119 15 -140 17 -33 61 -60 97 -60 29 0 83 33
97 58 5 10 11 70 12 133 2 109 1 114 -20 117 -20 3 -21 0 -21 -103 0 -99 -2
-107 -25 -130 -29 -30 -55 -32 -86 -6 -22 18 -24 28 -27 130 -3 101 -5 111
-23 111 -18 0 -19 -8 -19 -110z"/>
<path d="M6380 1635 l0 -155 95 0 c95 0 95 0 95 25 0 24 -2 25 -70 25 l-70 0
0 40 0 40 60 0 c57 0 60 1 60 25 0 24 -3 25 -60 25 l-60 0 0 40 0 40 70 0 c68
0 70 1 70 25 0 25 0 25 -95 25 l-95 0 0 -155z"/>
<path d="M6840 1693 l0 -98 -95 95 -95 95 0 -153 0 -152 25 0 c24 0 24 2 27
91 l3 91 93 -87 92 -87 0 151 0 151 -25 0 c-25 0 -25 0 -25 -97z"/>
<path d="M6970 1635 l0 -155 95 0 c95 0 95 0 95 25 0 24 -2 25 -76 25 l-75 0
3 38 3 37 63 3 c58 3 62 4 62 27 0 23 -4 24 -62 27 l-63 3 -3 38 -3 37 76 0
c73 0 76 1 73 23 -3 21 -8 22 -95 25 l-93 3 0 -156z"/>
<path d="M7237 1783 c-4 -3 -7 -73 -7 -155 l0 -148 25 0 c24 0 25 2 25 65 0
61 1 65 23 65 16 0 34 -17 66 -65 37 -55 49 -65 73 -65 l29 0 -41 59 c-22 33
-40 64 -40 69 0 5 11 14 25 20 52 24 48 119 -6 147 -28 15 -159 21 -172 8z
m167 -65 c20 -33 -4 -53 -68 -56 l-56 -3 0 41 0 41 56 -3 c41 -2 60 -8 68 -20z"/>
<path d="M7604 1765 c-136 -81 -70 -295 86 -282 25 2 58 12 73 21 25 17 27 23
27 87 l0 69 -55 0 c-52 0 -55 -1 -55 -25 0 -22 4 -25 35 -25 32 0 35 -2 35
-30 0 -48 -60 -66 -120 -35 -36 18 -52 47 -52 90 0 43 16 72 52 90 34 18 73
19 101 4 15 -7 24 -7 35 2 21 17 18 25 -20 43 -48 23 -94 20 -142 -9z"/>
<path d="M7860 1783 c0 -3 20 -41 45 -84 42 -72 45 -83 45 -149 0 -68 1 -70
25 -70 25 0 25 1 25 80 0 76 2 83 41 147 23 38 43 71 46 76 2 4 -8 7 -24 7
-23 0 -33 -9 -58 -50 -16 -28 -32 -50 -35 -50 -3 0 -18 23 -35 50 -21 37 -35
50 -52 50 -13 0 -23 -3 -23 -7z"/>
<path d="M8420 1779 c-14 -6 -36 -20 -48 -32 -76 -71 -67 -176 21 -241 39 -29
125 -29 164 0 25 19 28 28 31 88 l3 66 -56 0 c-52 0 -55 -1 -55 -25 0 -21 5
-25 30 -25 27 0 30 -3 30 -30 0 -69 -126 -66 -158 5 -38 83 24 168 110 151 62
-12 72 -11 76 7 7 35 -91 58 -148 36z"/>
<path d="M8667 1783 c-4 -3 -7 -73 -7 -155 l0 -148 90 0 c89 0 90 0 90 25 0
24 -2 25 -65 25 l-65 0 0 130 c0 119 -1 130 -18 130 -10 0 -22 -3 -25 -7z"/>
<path d="M8960 1773 c-41 -21 -77 -71 -86 -119 -8 -42 28 -118 69 -148 40 -29
125 -29 164 0 96 71 97 186 2 257 -38 28 -106 32 -149 10z m113 -44 c34 -18
57 -51 57 -86 0 -99 -100 -148 -172 -84 -28 25 -33 36 -33 76 0 40 5 51 33 76
35 31 77 38 115 18z"/>
<path d="M9260 1635 l0 -155 81 0 c76 0 82 2 110 29 34 35 38 77 10 113 -15
19 -18 34 -14 66 5 36 2 45 -25 72 -28 27 -36 30 -96 30 l-66 0 0 -155z m124
99 c9 -4 16 -18 16 -34 0 -31 -15 -40 -66 -40 -33 0 -34 1 -34 40 0 39 1 40
34 40 19 0 41 -3 50 -6z m40 -146 c20 -33 -4 -53 -68 -56 l-56 -3 0 41 0 41
56 -3 c41 -2 60 -8 68 -20z"/>
<path d="M9890 1635 l0 -155 90 0 c89 0 90 0 90 25 0 24 -2 25 -65 25 l-65 0
0 130 0 130 -25 0 -25 0 0 -155z"/>
<path d="M3721 1686 c-35 -53 -68 -99 -72 -102 -5 -3 -36 37 -70 88 -33 51
-63 95 -65 97 -2 2 -4 -62 -4 -142 0 -140 1 -147 20 -147 18 0 20 7 20 65 0
36 3 65 8 65 4 0 24 -27 46 -60 21 -33 40 -60 42 -60 2 0 23 28 46 63 l43 62
3 -67 c3 -60 5 -68 23 -68 11 0 22 6 25 13 2 7 3 75 2 152 l-3 139 -64 -98z"/>
<path d="M5830 1630 l0 -150 25 0 c23 0 24 3 27 68 l3 67 43 -62 c23 -35 44
-63 46 -63 2 0 21 27 42 60 22 33 42 60 47 60 4 0 7 -29 7 -65 0 -58 2 -65 20
-65 19 0 20 7 20 145 0 80 -2 145 -4 145 -2 0 -32 -43 -66 -95 -34 -52 -65
-95 -69 -95 -3 0 -35 45 -71 100 -35 55 -65 100 -67 100 -2 0 -3 -67 -3 -150z"/>
<path d="M9624 1639 c-32 -78 -60 -146 -62 -151 -2 -4 8 -8 22 -8 19 0 29 7
36 25 9 23 15 25 65 25 49 0 57 -3 67 -25 7 -16 19 -25 35 -25 12 0 23 3 23 6
0 10 -112 278 -120 287 -4 4 -34 -56 -66 -134z m84 -29 c11 -29 10 -30 -19
-30 -32 0 -34 5 -19 45 12 31 24 26 38 -15z"/>
<path d="M2460 1381 c0 -28 5 -53 11 -56 5 -4 46 -4 89 0 72 6 79 9 84 31 4
14 11 22 15 19 5 -3 14 9 20 25 9 28 -2 44 -12 18 -4 -10 -6 -10 -6 0 -1 9
-28 12 -101 12 l-100 0 0 -49z"/>
<path d="M5400 1191 c0 -101 2 -121 15 -121 11 0 15 12 15 50 l0 50 44 0 c57
0 89 25 89 69 0 48 -23 64 -98 69 l-65 4 0 -121z m130 64 c21 -25 -6 -47 -54
-43 -36 3 -41 6 -44 31 -3 26 -1 27 41 27 27 0 49 -6 57 -15z"/>
<path d="M5630 1191 c0 -101 2 -121 15 -121 11 0 15 12 15 50 0 43 3 50 19 50
12 0 34 -20 56 -50 22 -31 44 -50 56 -50 18 0 17 4 -11 44 -16 25 -30 47 -30
50 0 3 11 16 25 30 30 30 32 56 6 87 -15 19 -30 24 -85 27 l-66 4 0 -121z
m125 49 c0 -23 -4 -25 -47 -28 -48 -3 -48 -3 -48 28 0 31 0 31 48 28 43 -3 47
-5 47 -28z"/>
<path d="M5880 1190 c0 -100 3 -120 15 -120 13 0 15 20 15 120 0 100 -2 120
-15 120 -12 0 -15 -20 -15 -120z"/>
<path d="M5980 1300 c0 -5 20 -57 44 -117 l44 -107 15 35 c85 202 88 209 55
196 -7 -2 -24 -32 -37 -66 -13 -33 -27 -61 -31 -61 -4 0 -20 29 -35 65 -16 36
-34 65 -42 65 -7 0 -13 -4 -13 -10z"/>
<path d="M6390 1290 c0 -15 7 -20 25 -20 l25 0 0 -100 c0 -82 3 -100 15 -100
12 0 15 18 15 100 l0 100 25 0 c18 0 25 5 25 20 0 18 -7 20 -65 20 -58 0 -65
-2 -65 -20z"/>
<path d="M6590 1190 l0 -120 70 0 c54 0 70 3 70 14 0 11 -15 16 -52 18 -52 3
-53 4 -56 36 -3 32 -3 32 42 32 39 0 46 3 46 20 0 17 -7 20 -45 20 -43 0 -45
1 -45 30 0 30 1 30 55 30 48 0 55 2 55 20 0 18 -7 20 -70 20 l-70 0 0 -120z"/>
<path d="M6910 1190 l0 -120 65 0 c50 0 65 3 65 14 0 11 -14 16 -47 18 l-48 3
-3 103 c-2 82 -6 102 -17 102 -12 0 -15 -21 -15 -120z"/>
<path d="M7110 1190 c0 -100 3 -120 15 -120 13 0 15 20 15 120 0 100 -2 120
-15 120 -12 0 -15 -20 -15 -120z"/>
<path d="M7480 1190 c0 -100 3 -120 15 -120 13 0 15 20 15 120 0 100 -2 120
-15 120 -12 0 -15 -20 -15 -120z"/>
<path d="M7580 1290 c0 -15 7 -20 25 -20 l25 0 0 -100 c0 -82 3 -100 15 -100
12 0 15 18 15 100 l0 100 30 0 c23 0 30 4 30 20 0 18 -7 20 -70 20 -63 0 -70
-2 -70 -20z"/>
<path d="M7780 1190 l0 -121 72 3 c88 4 107 25 26 30 -52 3 -53 4 -56 36 -3
32 -3 32 42 32 39 0 46 3 46 20 0 17 -7 20 -45 20 -43 0 -45 1 -45 29 0 29 2
30 53 33 38 2 52 7 52 18 0 12 -16 16 -72 18 l-73 3 0 -121z"/>
<path d="M7990 1191 l0 -121 40 0 c85 0 140 47 140 119 0 71 -41 109 -126 118
l-54 6 0 -122z m125 54 c29 -28 32 -70 10 -102 -16 -23 -78 -48 -95 -38 -5 3
-10 42 -10 86 l0 79 35 0 c25 0 44 -8 60 -25z"/>
<path d="M6208 1184 c-41 -101 -45 -114 -28 -114 10 0 22 9 25 20 5 16 15 20
50 20 34 0 47 -5 55 -20 10 -19 40 -28 40 -12 0 9 -81 205 -89 214 -3 4 -27
-45 -53 -108z m66 0 c10 -27 7 -34 -19 -34 -23 0 -24 2 -13 25 13 29 23 32 32
9z"/>
<path d="M7202 1183 c3 -92 5 -108 20 -111 14 -3 17 6 20 50 l3 53 30 -47 c16
-27 32 -48 35 -48 3 0 18 20 33 45 34 53 50 50 45 -8 -2 -33 1 -43 15 -45 15
-3 17 8 17 109 0 65 -4 109 -9 104 -4 -6 -29 -41 -54 -78 l-45 -69 -51 76
c-29 42 -54 76 -57 76 -2 0 -3 -48 -2 -107z"/>
<path d="M970 1096 l0 -105 90 -3 c50 -2 90 1 90 5 0 4 -31 38 -68 75 -37 37
-74 82 -81 100 -7 17 -17 32 -22 32 -5 0 -9 -47 -9 -104z"/>
<path d="M1897 1018 c38 -45 47 -87 41 -182 -3 -40 -2 -60 2 -46 13 42 11 149
-4 183 -7 18 -26 43 -42 57 -27 24 -27 23 3 -12z"/>
<path d="M2537 966 c-9 -27 -15 -51 -13 -54 8 -7 37 71 33 88 -1 8 -11 -7 -20
-34z"/>
</g>
</svg>
